<svg width="160" height="121" viewBox="0 0 160 121" fill="none" xmlns="http://www.w3.org/2000/svg">
<g clip-path="url(#clip0_1447_727)">
<path d="M15.9536 27.196C12.8508 23.2926 13.5139 17.6308 17.4345 14.55C21.3551 11.4691 27.0486 12.1358 30.1514 16.0391C32.0989 18.4892 32.5611 21.6315 31.6671 24.394L50.2475 47.7688L42.3595 53.9673L23.779 30.5925C20.8692 30.8191 17.9011 29.646 15.9536 27.196Z" fill="#72BCFF"/>
<path d="M138.923 49.8009C142.44 46.2706 148.172 46.2476 151.726 49.7497C155.28 53.2518 155.311 58.9527 151.794 62.483C149.587 64.6989 146.507 65.5313 143.64 64.9792L122.582 86.1203L115.431 79.0743L136.49 57.9332C135.908 55.0875 136.716 52.0168 138.923 49.8009Z" fill="#58ACFF"/>
<path d="M89.1237 9.02468C117.696 12.3706 138.192 38.1548 134.865 66.5677L128.836 118.049L77.0666 111.986C48.4944 108.64 27.9986 82.8561 31.3259 54.4431C34.6532 26.0301 60.5515 5.67877 89.1237 9.02468Z" fill="url(#paint0_linear_1447_727)"/>
<path d="M90.7375 47.9161C93.5578 48.2463 96.1103 46.2405 96.4387 43.436C96.7672 40.6314 94.7471 38.0902 91.9269 37.7599C89.1066 37.4297 86.5541 39.4355 86.2257 42.24C85.8972 45.0445 87.9173 47.5858 90.7375 47.9161Z" fill="white"/>
<path d="M71.1125 34.349C73.9328 34.6792 76.4853 32.6734 76.8137 29.8689C77.1422 27.0643 75.1221 24.5231 72.3019 24.1928C69.4816 23.8625 66.9291 25.8683 66.6007 28.6729C66.2722 31.4774 68.2923 34.0187 71.1125 34.349Z" fill="white"/>
<path d="M79.12 48.558L67.5346 40.9166C66.1978 39.8689 64.2202 40.4683 63.72 42.0845C62.5191 45.9653 61.3341 51.0278 62.9786 53.3961C65.1402 56.5091 69.6279 59.0652 79.0538 52.3844C80.3523 51.4641 80.3739 49.5408 79.12 48.558Z" fill="white"/>
</g>
<defs>
<linearGradient id="paint0_linear_1447_727" x1="46.2539" y1="30.1108" x2="126.193" y2="96.7507" gradientUnits="userSpaceOnUse">
<stop offset="0.0271" stop-color="#B8E1FF"/>
<stop offset="0.16616" stop-color="#93CDFF"/>
<stop offset="0.3453" stop-color="#6BB7FF"/>
<stop offset="0.52179" stop-color="#4CA6FF"/>
<stop offset="0.69255" stop-color="#3699FF"/>
<stop offset="0.85492" stop-color="#2892FF"/>
<stop offset="1" stop-color="#2490FF"/>
</linearGradient>
<clipPath id="clip0_1447_727">
<rect width="147.98" height="103.665" fill="white" transform="translate(12.0576) rotate(6.67912)"/>
</clipPath>
</defs>
</svg>
