<svg width="38" height="38" viewBox="0 0 38 38" fill="none" xmlns="http://www.w3.org/2000/svg">
<g id="web_light_rd_na 1">
<g id="Clip path group">
<mask id="mask0_972_384" style="mask-type:luminance" maskUnits="userSpaceOnUse" x="3" y="2" width="32" height="31">
<g id="clip0_710_6217">
<path id="Vector" d="M34.1998 2H3.7998V32.4H34.1998V2Z" fill="white"/>
</g>
</mask>
<g mask="url(#mask0_972_384)">
<g id="Group">
<path id="Vector_2" d="M33.592 17.5456C33.592 16.4677 33.4953 15.4314 33.3157 14.4364H19V20.3161H27.1803C26.828 22.2161 25.7572 23.8259 24.1473 24.9037V28.7176H29.0597C31.9338 26.0714 33.592 22.1746 33.592 17.5456Z" fill="#4285F4"/>
<path id="Vector_3" d="M18.9998 32.4C23.1038 32.4 26.5445 31.0389 29.0593 28.7175L24.147 24.9037C22.786 25.8157 21.0448 26.3545 18.9998 26.3545C15.0408 26.3545 11.69 23.6807 10.4947 20.088H5.4165V24.0262C7.91766 28.9938 13.058 32.4 18.9998 32.4Z" fill="#34A853"/>
<path id="Vector_4" d="M10.4946 20.0879C10.1906 19.1759 10.018 18.2018 10.018 17.1999C10.018 16.1981 10.1906 15.2239 10.4946 14.3119V10.3738H5.41648C4.38713 12.4258 3.7998 14.7473 3.7998 17.1999C3.7998 19.6526 4.38713 21.9741 5.41648 24.0261L10.4946 20.0879Z" fill="#FBBC04"/>
<path id="Vector_5" d="M18.9998 8.0455C21.2313 8.0455 23.235 8.81234 24.8103 10.3185L29.17 5.95884C26.5377 3.50617 23.0968 2 18.9998 2C13.058 2 7.91766 5.40617 5.4165 10.3738L10.4947 14.312C11.69 10.7193 15.0408 8.0455 18.9998 8.0455Z" fill="#E94235"/>
</g>
</g>
</g>
</g>
</svg>
