<svg width="116" height="155" viewBox="0 0 116 155" fill="none" xmlns="http://www.w3.org/2000/svg">
<g id="Layer_1" clip-path="url(#clip0_811_156)">
<path id="Vector" d="M58.0001 39.7931C47.6157 39.7931 37.8956 42.5413 29.4672 47.2893V8.82794C29.4672 3.95249 25.4875 0 20.5785 0H8.88871C3.9797 0 0 3.95249 0 8.82794V155H58.4664V154.977C90.2819 154.725 116 129.054 116 97.3964C116 65.5829 90.0327 39.7931 58.0001 39.7931ZM49.6667 82.7229C46.5033 83.0939 43.636 80.8475 43.2625 77.7057C42.8892 74.5639 45.151 71.7162 48.3142 71.3452C51.4776 70.9746 54.3449 73.2206 54.7184 76.3624C55.092 79.5043 52.8301 82.3519 49.6667 82.7229ZM68.9117 58.0648C72.0751 57.6942 74.9423 59.9405 75.3159 63.0823C75.6891 66.2241 73.4273 69.0715 70.2639 69.4425C67.1007 69.8135 64.2335 67.5671 63.8599 64.4253C63.4864 61.2835 65.7482 58.4358 68.9117 58.0648ZM79.2394 92.1912C76.4636 96.0992 70.9062 99.1131 59.8686 89.7153C58.3482 88.4209 58.4233 85.9086 59.9901 84.716L74.3917 75.5739C76.0621 74.3026 78.4202 75.2269 78.9394 77.3727C80.1861 82.5246 81.3514 89.2177 79.2394 92.1912Z" fill="#488FFF"/>
</g>
<defs>
<clipPath id="clip0_811_156">
<rect width="116" height="155" fill="white"/>
</clipPath>
</defs>
</svg>
