<svg width="437" height="431" viewBox="0 0 437 431" fill="none" xmlns="http://www.w3.org/2000/svg">
<g clip-path="url(#clip0_334_169)">
<path d="M219.733 110.177V208.757C219.733 215.157 214.552 220.354 208.169 220.354H109.867C49.2299 220.354 0.000595093 170.985 0.000595093 110.177C0.000457764 49.3689 49.2299 0 109.867 0C170.504 0 219.733 49.3686 219.733 110.177Z" fill="url(#paint0_linear_334_169)"/>
<path d="M327.134 220.354L228.831 220.354C222.449 220.354 217.267 215.158 217.267 208.757V110.177C217.267 49.3687 266.497 0.000289917 327.133 0.000289917C387.77 0.000289917 437 49.3689 437 110.177C437 170.985 387.771 220.354 327.134 220.354Z" fill="url(#paint1_linear_334_169)"/>
<path d="M217.268 320.823V222.243C217.268 215.843 222.449 210.646 228.832 210.646H327.134C387.771 210.646 437 260.015 437 320.823C437 381.631 387.771 431 327.134 431C266.497 431 217.268 381.631 217.268 320.823Z" fill="url(#paint2_linear_334_169)"/>
<path d="M109.866 210.646H208.169C214.551 210.646 219.733 215.843 219.733 222.243V320.823C219.733 381.632 170.503 431 109.867 431C49.2298 431 0 381.632 0 320.823C0 260.015 49.2295 210.646 109.866 210.646Z" fill="url(#paint3_linear_334_169)"/>
<path d="M321.045 82.4364C326.363 82.4364 330.674 78.1262 330.674 72.8093C330.674 67.4923 326.363 63.1821 321.045 63.1821C315.727 63.1821 311.416 67.4923 311.416 72.8093C311.416 78.1262 315.727 82.4364 321.045 82.4364Z" fill="white"/>
<path d="M358.078 57.2577C363.396 57.2577 367.707 52.9475 367.707 47.6306C367.707 42.3136 363.396 38.0034 358.078 38.0034C352.76 38.0034 348.449 42.3136 348.449 47.6306C348.449 52.9475 352.76 57.2577 358.078 57.2577Z" fill="white"/>
<path d="M340.183 81.4699L362.741 69.7812C365.379 68.1238 368.826 69.6693 369.388 72.7842C370.738 80.2634 371.808 89.937 368.334 93.9836C363.768 99.3024 355.116 103.079 339.493 88.601C337.34 86.6065 337.708 83.0245 340.183 81.4699Z" fill="white"/>
<path d="M99.1891 253.105V256.188H90.0648V258.599H102.595V261.695H73.6435V258.599H86.1491V256.188H77.3355V246.492H98.9156V249.649H81.2388V253.105H99.1891ZM77.0496 266.642V263.746H98.9902V271.49H80.9156V273.84H99.8604V276.835H77.0869V268.743H95.1366V266.642H77.0496ZM113.284 247.673C118.083 247.685 121.526 252.036 121.551 258.898C121.526 265.809 118.083 270.16 113.284 270.148C108.474 270.16 105.018 265.809 105.03 258.898C105.018 252.036 108.474 247.685 113.284 247.673ZM108.797 258.898C108.784 263.783 110.624 266.617 113.284 266.617C115.994 266.617 117.784 263.783 117.784 258.898C117.784 254.05 115.994 251.203 113.284 251.203C110.624 251.203 108.784 254.05 108.797 258.898ZM125.728 277.121V245.373H129.644V257.58H134.541V260.862H129.644V277.121H125.728ZM160.757 245.373V257.779H165.468V261.023H160.757V277.072H156.841V245.373H160.757ZM135.709 268.395C143.441 264.516 147.617 259.121 148.388 251.887H137.399V248.667H152.366C152.341 258.003 148.475 266.207 137.909 271.403L135.709 268.395ZM192.728 254.348V257.443H170.7V246.516H174.591V254.348H192.728ZM166.946 264.231V261.148H195.997V264.231H166.946ZM170.439 276.4V267.04H174.343V273.231H192.927V276.4H170.439ZM235.691 270.073V273.28H206.64V270.073H219.158V263.149H209.834V247.822H232.334V263.149H223.036V270.073H235.691ZM213.676 260.079H228.481V250.954H213.676V260.079ZM249.301 250.992C249.301 255.467 251.812 259.83 256.685 261.657L254.522 264.703C251.116 263.36 248.705 260.713 247.374 257.431C246.007 260.949 243.446 263.733 239.779 265.15L237.678 262.068C242.738 260.228 245.361 255.74 245.386 250.992V247.175H249.301V250.992ZM243.421 276.525V266.679H247.374V273.355H265.064V276.525H243.421ZM254.671 259.146V256.001H260.464V252.881H254.671V249.711H260.464V245.398H264.368V269.004H260.464V259.146H254.671Z" fill="black"/>
</g>
<defs>
<linearGradient id="paint0_linear_334_169" x1="54.8778" y1="25.2297" x2="172.964" y2="206.623" gradientUnits="userSpaceOnUse">
<stop stop-color="white"/>
<stop offset="0.06828" stop-color="#E8F1FF"/>
<stop offset="0.23514" stop-color="#B8D3FF"/>
<stop offset="0.40085" stop-color="#8FBAFF"/>
<stop offset="0.56245" stop-color="#70A7FF"/>
<stop offset="0.71874" stop-color="#5A9AFF"/>
<stop offset="0.86729" stop-color="#4C91FF"/>
<stop offset="1" stop-color="#488FFF"/>
</linearGradient>
<linearGradient id="paint1_linear_334_169" x1="411.842" y1="55.0324" x2="230.353" y2="172.516" gradientUnits="userSpaceOnUse">
<stop stop-color="white"/>
<stop offset="0.06828" stop-color="#E8F1FF"/>
<stop offset="0.23514" stop-color="#B8D3FF"/>
<stop offset="0.40085" stop-color="#8FBAFF"/>
<stop offset="0.56245" stop-color="#70A7FF"/>
<stop offset="0.71874" stop-color="#5A9AFF"/>
<stop offset="0.86729" stop-color="#4C91FF"/>
<stop offset="1" stop-color="#488FFF"/>
</linearGradient>
<linearGradient id="paint2_linear_334_169" x1="382.123" y1="405.77" x2="264.037" y2="224.377" gradientUnits="userSpaceOnUse">
<stop stop-color="white"/>
<stop offset="0.06828" stop-color="#E8F1FF"/>
<stop offset="0.23514" stop-color="#B8D3FF"/>
<stop offset="0.40085" stop-color="#8FBAFF"/>
<stop offset="0.56245" stop-color="#70A7FF"/>
<stop offset="0.71874" stop-color="#5A9AFF"/>
<stop offset="0.86729" stop-color="#4C91FF"/>
<stop offset="1" stop-color="#488FFF"/>
</linearGradient>
<linearGradient id="paint3_linear_334_169" x1="25.1586" y1="375.968" x2="206.647" y2="258.484" gradientUnits="userSpaceOnUse">
<stop stop-color="white"/>
<stop offset="0.06828" stop-color="#E8F1FF"/>
<stop offset="0.23514" stop-color="#B8D3FF"/>
<stop offset="0.40085" stop-color="#8FBAFF"/>
<stop offset="0.56245" stop-color="#70A7FF"/>
<stop offset="0.71874" stop-color="#5A9AFF"/>
<stop offset="0.86729" stop-color="#4C91FF"/>
<stop offset="1" stop-color="#488FFF"/>
</linearGradient>
<clipPath id="clip0_334_169">
<rect width="437" height="431" fill="white"/>
</clipPath>
</defs>
</svg>
