<svg width="145" height="32" viewBox="0 0 145 32" fill="none" xmlns="http://www.w3.org/2000/svg">
<path d="M104.136 7.11133C97.0985 7.11133 91.3936 12.6829 91.3936 19.5558C91.3936 26.4286 97.0985 32.0002 104.136 32.0002C111.173 32.0002 116.878 26.4286 116.878 19.5558C116.878 12.6829 111.173 7.11133 104.136 7.11133ZM104.136 25.8679C100.566 25.8679 97.6728 23.0419 97.6728 19.5558C97.6728 16.0697 100.566 13.2437 104.136 13.2437C107.706 13.2437 110.599 16.0697 110.599 19.5558C110.599 23.0418 107.705 25.8679 104.136 25.8679Z" fill="white"/>
<path d="M35.5911 7.11133C28.5536 7.11133 22.8486 12.6829 22.8486 19.5558C22.8486 26.4286 28.5536 32.0002 35.5911 32.0002C42.6286 32.0002 48.3335 26.4286 48.3335 19.5558C48.3335 12.6829 42.6285 7.11133 35.5911 7.11133ZM35.5911 25.8679C32.0215 25.8679 29.1279 23.0419 29.1279 19.5558C29.1279 16.0697 32.0215 13.2437 35.5911 13.2437C39.1606 13.2437 42.0542 16.0697 42.0542 19.5558C42.0542 23.0418 39.1606 25.8679 35.5911 25.8679Z" fill="white"/>
<path d="M48.0361 19.2179C48.0879 12.6354 53.375 7.31445 59.8949 7.31445C66.447 7.31445 71.7585 12.687 71.7585 19.3144C71.7585 25.9093 66.498 31.2571 59.9903 31.3096V31.3145H48.0312V19.2179H48.0361Z" fill="white"/>
<path d="M94.0249 19.0148C93.971 12.4324 88.4882 7.11133 81.7269 7.11133C74.9321 7.11133 69.4238 12.4839 69.4238 19.1113C69.4238 25.7061 74.8792 31.054 81.6279 31.1064V31.1113H94.0299V19.0148L94.0249 19.0148ZM81.7269 25.0768C78.349 25.0768 75.6107 22.4059 75.6107 19.1113C75.6107 15.8167 78.349 13.1459 81.7269 13.1459C85.1047 13.1459 87.8429 15.8167 87.8429 19.1113C87.8429 22.4059 85.1047 25.0768 81.7269 25.0768Z" fill="white"/>
<path d="M54.4845 0H48.333V31.1111H54.4845V0Z" fill="white"/>
<path d="M94.0304 0H87.8789V31.1111H94.0304V0Z" fill="white"/>
<path d="M57.5604 17.778C58.2884 17.778 58.8786 17.181 58.8786 16.4447C58.8786 15.7083 58.2884 15.1113 57.5604 15.1113C56.8324 15.1113 56.2422 15.7083 56.2422 16.4447C56.2422 17.181 56.8324 17.778 57.5604 17.778Z" fill="black"/>
<path d="M62.8338 14.2223C63.5618 14.2223 64.152 13.6254 64.152 12.889C64.152 12.1526 63.5618 11.5557 62.8338 11.5557C62.1058 11.5557 61.5156 12.1526 61.5156 12.889C61.5156 13.6254 62.1058 14.2223 62.8338 14.2223Z" fill="black"/>
<path d="M60.9202 17.855L63.9616 16.1012C64.3173 15.8526 64.7821 16.0845 64.8579 16.5518C65.0398 17.674 65.1841 19.1254 64.7157 19.7325C64.1001 20.5306 62.9336 21.0972 60.8272 18.9249C60.537 18.6257 60.5866 18.0882 60.9202 17.855Z" fill="black"/>
<path d="M138.781 27.5693V16.2719C138.781 14.4244 137.463 12.7712 135.663 12.5916C133.597 12.3856 131.851 14.0456 131.851 16.114V31.9999H129.97C127.575 31.9999 125.633 30.0163 125.633 27.5693V16.2719C125.633 14.4244 124.314 12.7712 122.514 12.5916C120.449 12.3856 118.703 14.0456 118.703 16.114V31.9999H116.822C114.426 31.9999 112.484 30.0163 112.484 27.5693V16.4563C112.484 10.9123 116.925 6.1218 122.351 6.22377C124.743 6.26872 126.992 7.19507 128.742 8.85259C130.492 7.19507 132.741 6.26872 135.133 6.22377C140.559 6.1218 145 10.9123 145 16.4563L145 31.9999H143.118C140.723 31.9999 138.781 30.0163 138.781 27.5693Z" fill="white"/>
<path d="M11.8636 32C5.32196 32 0 26.5494 0 19.8501V19.4046H6.04036V19.8501C6.04036 23.1388 8.6527 25.8141 11.8636 25.8141C15.075 25.8141 17.6873 23.1388 17.6873 19.8501V0H23.7273V19.8501C23.7273 26.5494 18.4053 32 11.8636 32Z" fill="white"/>
</svg>
