<svg width="145" height="32" viewBox="0 0 145 32" fill="none" xmlns="http://www.w3.org/2000/svg">
<g id="logo">
<path id="Vector" d="M104.136 7.11108C97.0989 7.11108 91.394 12.6827 91.394 19.5555C91.394 26.4284 97.0989 32 104.136 32C111.174 32 116.879 26.4284 116.879 19.5555C116.879 12.6827 111.174 7.11108 104.136 7.11108ZM104.136 25.8676C100.567 25.8676 97.6732 23.0416 97.6732 19.5555C97.6732 16.0694 100.567 13.2435 104.136 13.2435C107.706 13.2435 110.6 16.0695 110.6 19.5555C110.6 23.0416 107.706 25.8676 104.136 25.8676Z" fill="black"/>
<path id="Vector_2" d="M35.5909 7.11108C28.5534 7.11108 22.8485 12.6827 22.8485 19.5555C22.8485 26.4284 28.5534 32 35.5909 32C42.6284 32 48.3333 26.4284 48.3333 19.5555C48.3333 12.6827 42.6284 7.11108 35.5909 7.11108ZM35.5909 25.8676C32.0214 25.8676 29.1277 23.0416 29.1277 19.5555C29.1277 16.0694 32.0214 13.2435 35.5909 13.2435C39.1605 13.2435 42.0541 16.0695 42.0541 19.5555C42.0541 23.0416 39.1604 25.8676 35.5909 25.8676Z" fill="black"/>
<path id="Vector_3" d="M48.0361 19.2177C48.0879 12.6352 53.375 7.31421 59.8949 7.31421C66.447 7.31421 71.7585 12.6868 71.7585 19.3142C71.7585 25.9091 66.498 31.2569 59.9903 31.3093V31.3142H48.0312V19.2177H48.0361Z" fill="black"/>
<path id="Vector_4" d="M94.0253 19.0145C93.9715 12.4321 88.4886 7.11108 81.7273 7.11108C74.9325 7.11108 69.4243 12.4837 69.4243 19.1111C69.4243 25.7059 74.8797 31.0537 81.6284 31.1062V31.1111H94.0303V19.0145L94.0253 19.0145ZM81.7273 25.0765C78.3494 25.0765 75.6112 22.4057 75.6112 19.1111C75.6112 15.8165 78.3494 13.1456 81.7273 13.1456C85.1052 13.1456 87.8434 15.8165 87.8434 19.1111C87.8434 22.4057 85.1051 25.0765 81.7273 25.0765Z" fill="black"/>
<path id="Vector_5" d="M54.4848 0H48.3333V31.1111H54.4848V0Z" fill="black"/>
<path id="Vector_6" d="M94.0303 0H87.8788V31.1111H94.0303V0Z" fill="black"/>
<path id="Vector_7" d="M57.5606 17.7778C58.2886 17.7778 58.8788 17.1808 58.8788 16.4444C58.8788 15.708 58.2886 15.1111 57.5606 15.1111C56.8326 15.1111 56.2424 15.708 56.2424 16.4444C56.2424 17.1808 56.8326 17.7778 57.5606 17.7778Z" fill="white"/>
<path id="Vector_8" d="M62.8333 14.2223C63.5614 14.2223 64.1515 13.6254 64.1515 12.889C64.1515 12.1526 63.5614 11.5557 62.8333 11.5557C62.1053 11.5557 61.5152 12.1526 61.5152 12.889C61.5152 13.6254 62.1053 14.2223 62.8333 14.2223Z" fill="white"/>
<path id="Vector_9" d="M60.9199 17.855L63.9613 16.1012C64.3169 15.8526 64.7818 16.0845 64.8575 16.5518C65.0394 17.674 65.1837 19.1254 64.7154 19.7325C64.0998 20.5306 62.9332 21.0972 60.8268 18.9249C60.5366 18.6257 60.5862 18.0882 60.9199 17.855Z" fill="white"/>
<path id="Vector_10" d="M138.782 27.5693V16.2719C138.782 14.4244 137.463 12.7712 135.663 12.5916C133.598 12.3856 131.852 14.0456 131.852 16.114V31.9999H129.97C127.575 31.9999 125.633 30.0163 125.633 27.5693V16.2719C125.633 14.4244 124.315 12.7712 122.515 12.5916C120.449 12.3856 118.703 14.0456 118.703 16.114V31.9999H116.822C114.427 31.9999 112.485 30.0163 112.485 27.5693V16.4563C112.485 10.9123 116.925 6.1218 122.351 6.22377C124.744 6.26872 126.992 7.19507 128.742 8.85259C130.493 7.19507 132.741 6.26872 135.134 6.22377C140.56 6.1218 145 10.9123 145 16.4563L145 31.9999H143.119C140.724 31.9999 138.782 30.0163 138.782 27.5693Z" fill="black"/>
<path id="Vector_11" d="M11.8636 32C5.32196 32 0 26.5494 0 19.8501V19.4046H6.04036V19.8501C6.04036 23.1388 8.6527 25.8141 11.8636 25.8141C15.075 25.8141 17.6873 23.1388 17.6873 19.8501V0H23.7273V19.8501C23.7273 26.5494 18.4053 32 11.8636 32Z" fill="black"/>
</g>
</svg>
