<svg width="127" height="74" viewBox="0 0 127 74" fill="none" xmlns="http://www.w3.org/2000/svg">
<g clip-path="url(#clip0_1413_952)">
<path d="M58.7775 41.2113C60.4642 42.5336 62.9056 42.241 64.2306 40.5576C65.5555 38.8742 65.2623 36.4377 63.5756 35.1154C62.5169 34.2854 61.161 34.0924 59.9704 34.4795L49.8697 26.561L47.204 29.9478L57.3047 37.8663C57.2098 39.1124 57.7188 40.3813 58.7775 41.2113Z" fill="#E2E2E2"/>
<path d="M3.13999 22.0285C1.03488 22.4388 -0.338369 24.4745 0.0727337 26.5754C0.483837 28.6763 2.52361 30.0468 4.62871 29.6365C5.95003 29.379 6.98233 28.4808 7.46672 27.3284L20.0729 24.8714L19.2458 20.6445L6.63961 23.1015C5.75637 22.2156 4.46131 21.771 3.13999 22.0285Z" fill="#E2E2E2"/>
<path d="M28.8875 45.1628L6.56424 39.9564L11.781 17.6776C14.6602 5.38156 27.0005 -2.26833 39.3211 0.605151C51.6416 3.47863 59.3068 15.7943 56.4276 28.0903C53.5484 40.3863 41.2081 48.0362 28.8875 45.1628Z" fill="#E2E2E2"/>
<path d="M33.3431 16.5751C34.592 16.5751 35.6044 15.5647 35.6044 14.3183C35.6044 13.0719 34.592 12.0615 33.3431 12.0615C32.0942 12.0615 31.0818 13.0719 31.0818 14.3183C31.0818 15.5647 32.0942 16.5751 33.3431 16.5751Z" fill="white"/>
<path d="M43.4935 13.8686C44.7424 13.8686 45.7548 12.8582 45.7548 11.6118C45.7548 10.3654 44.7424 9.35498 43.4935 9.35498C42.2446 9.35498 41.2322 10.3654 41.2322 11.6118C41.2322 12.8582 42.2446 13.8686 43.4935 13.8686Z" fill="white"/>
<path d="M37.5382 18.5156L43.4752 17.0707C44.1851 16.8351 44.9134 17.3791 44.8783 18.1249C44.7938 19.9157 44.5257 22.1949 43.4907 22.9331C42.1303 23.9033 39.8911 24.2953 36.9925 20.1145C36.5932 19.5386 36.8723 18.7366 37.5382 18.5156Z" fill="white"/>
<path d="M66.4064 55.9719C64.3502 56.5811 62.1885 55.4115 61.578 53.3595C60.9676 51.3074 62.1395 49.15 64.1957 48.5407C65.4863 48.1583 66.818 48.4773 67.7821 49.2749L80.0952 45.6265L81.3234 49.7551L69.0103 53.4035C68.6385 54.5969 67.697 55.5895 66.4064 55.9719Z" fill="#E2E2E2"/>
<path d="M125.212 58.5913C127.018 59.7466 127.543 62.144 126.385 63.9461C125.228 65.7481 122.826 66.2724 121.02 65.1171C119.887 64.3919 119.258 63.1774 119.233 61.9279L108.42 55.0094L110.749 51.3838L121.562 58.3023C122.711 57.8034 124.079 57.8661 125.212 58.5913Z" fill="#E2E2E2"/>
<path d="M99.4821 25.3736C111.997 27.2314 120.646 38.88 118.784 51.3699L115.411 73.9999L92.7362 70.6337C80.2214 68.7758 71.5723 57.1273 73.4339 44.6374C75.2955 32.1476 86.9673 23.5157 99.4821 25.3736Z" fill="#E2E2E2"/>
<path d="M99.9785 42.5766C101.227 42.5766 102.24 41.5662 102.24 40.3198C102.24 39.0734 101.227 38.063 99.9785 38.063C98.7296 38.063 97.7172 39.0734 97.7172 40.3198C97.7172 41.5662 98.7296 42.5766 99.9785 42.5766Z" fill="white"/>
<path d="M91.5406 36.329C92.7895 36.329 93.8019 35.3186 93.8019 34.0722C93.8019 32.8258 92.7895 31.8154 91.5406 31.8154C90.2917 31.8154 89.2793 32.8258 89.2793 34.0722C89.2793 35.3186 90.2917 36.329 91.5406 36.329Z" fill="white"/>
<path d="M94.529 42.6801L89.5427 39.1543C88.9697 38.6742 88.0919 38.9122 87.8493 39.6185C87.2668 41.3144 86.6748 43.532 87.3646 44.5987C88.2712 46.0009 90.2083 47.1885 94.4462 44.3672C95.03 43.9786 95.0665 43.1304 94.529 42.6801Z" fill="white"/>
</g>
<defs>
<clipPath id="clip0_1413_952">
<rect width="127" height="74" fill="white"/>
</clipPath>
</defs>
</svg>
