<svg width="119" height="74" viewBox="0 0 119 74" fill="none" xmlns="http://www.w3.org/2000/svg">
<g clip-path="url(#clip0_1413_967)">
<path d="M65.7255 58.8002C93.5288 51.5093 113.176 34.3477 109.609 20.4686C106.041 6.58957 80.6103 1.24886 52.8069 8.5398C25.0036 15.8307 5.35652 32.9924 8.92389 46.8714C12.4913 60.7505 37.9222 66.0912 65.7255 58.8002Z" stroke="#E2E2E2" stroke-width="2" stroke-miterlimit="10"/>
<path d="M14.4203 52.3164L0.655576 48.9815L3.95958 35.0808C5.7831 27.4088 13.4313 22.6744 21.0282 24.515C28.6252 26.3556 33.3125 34.0787 31.4889 41.7507C29.6654 49.4226 22.0172 54.157 14.4203 52.3164Z" fill="#E2E2E2"/>
<path d="M17.2776 34.471C18.0487 34.4756 18.6776 33.848 18.6823 33.0692C18.6869 32.2905 18.0655 31.6555 17.2944 31.6509C16.5232 31.6463 15.8943 32.2739 15.8897 33.0526C15.8851 33.8314 16.5064 34.4664 17.2776 34.471Z" fill="white"/>
<path d="M23.5552 32.8177C24.3263 32.8222 24.9552 32.1947 24.9599 31.4159C24.9645 30.6372 24.3431 30.0021 23.572 29.9976C22.8008 29.993 22.1719 30.6206 22.1673 31.3993C22.1626 32.1781 22.784 32.8131 23.5552 32.8177Z" fill="white"/>
<path d="M19.8608 35.6989L23.5322 34.818C23.9714 34.6734 24.4191 35.0159 24.3946 35.4818C24.3358 36.6004 24.1618 38.0235 23.52 38.4809C22.6763 39.0821 21.2922 39.3188 19.5179 36.696C19.2735 36.3347 19.4489 35.8346 19.8608 35.6989Z" fill="white"/>
<path d="M95.7938 0.767777C105.862 -0.318156 114.909 7.05486 115.983 17.2223L117.929 35.6444L99.6863 37.612C89.618 38.6979 80.5717 31.3249 79.4975 21.1575C78.4234 10.99 85.7255 1.85371 95.7938 0.767777Z" fill="#E2E2E2"/>
<path d="M99.1785 14.2091C100.178 14.2151 100.993 13.4017 100.999 12.3924C101.005 11.3832 100.2 10.5602 99.2003 10.5542C98.2008 10.5483 97.3858 11.3616 97.3798 12.3709C97.3738 13.3802 98.1791 14.2032 99.1785 14.2091Z" fill="white"/>
<path d="M91.384 11.0265C92.3834 11.0325 93.1985 10.2191 93.2045 9.20983C93.2105 8.20055 92.4051 7.37754 91.4057 7.3716C90.4063 7.36566 89.5912 8.17902 89.5852 9.1883C89.5792 10.1976 90.3845 11.0206 91.384 11.0265Z" fill="white"/>
<path d="M95.4437 15.3384L90.8709 13.5878C90.3304 13.328 89.6983 13.6928 89.6527 14.2957C89.5432 15.7432 89.5313 17.6015 90.2805 18.2975C91.2653 19.2123 93.0051 19.7496 95.7194 16.6776C96.0933 16.2544 95.9507 15.5822 95.4437 15.3384Z" fill="white"/>
<path d="M60.959 40.7793C68.7573 42.6687 73.5689 50.5965 71.6971 58.4719L68.3054 72.7412L54.1758 69.3179C46.3774 67.4285 41.5659 59.5007 43.4377 51.6252C45.3096 43.7498 53.1606 38.8899 60.959 40.7793Z" fill="#E2E2E2"/>
<path d="M60.4305 51.8038C61.2221 51.8085 61.8677 51.1643 61.8724 50.3649C61.8772 49.5655 61.2393 48.9136 60.4477 48.9089C59.6561 48.9042 59.0106 49.5484 59.0058 50.3478C59.001 51.1472 59.6389 51.7991 60.4305 51.8038Z" fill="white"/>
<path d="M55.451 47.3385C56.2426 47.3432 56.8882 46.6989 56.8929 45.8995C56.8977 45.1001 56.2598 44.4483 55.4682 44.4436C54.6766 44.4389 54.0311 45.0831 54.0263 45.8825C54.0216 46.6819 54.6594 47.3338 55.451 47.3385Z" fill="white"/>
<path d="M56.8665 51.5583L53.9147 49.0257C53.5797 48.6869 53.0121 48.7897 52.8196 49.2273C52.3573 50.2782 51.8598 51.6617 52.2358 52.382C52.7301 53.3287 53.887 54.1962 56.7202 52.6316C57.1104 52.416 57.1808 51.8761 56.8665 51.5583Z" fill="white"/>
<path d="M74.2311 34.5093L73.8045 34.4059C72.1535 34.0059 70.4939 35.0332 70.0977 36.7005L63.7237 63.517C63.3275 65.1843 64.3446 66.8601 65.9955 67.2601L66.4221 67.3635C68.0731 67.7635 69.7327 66.7361 70.1289 65.0689L76.5029 38.2523C76.8991 36.5851 75.882 34.9092 74.2311 34.5093Z" fill="#E2E2E2"/>
<path d="M50.9201 23.3194L41.0152 28.1911L36.1922 18.1892C33.5303 12.669 35.8074 6.00442 41.2741 3.31566C46.7407 0.626908 53.3401 2.92566 56.0019 8.44585C58.6638 13.966 56.3867 20.6307 50.9201 23.3194Z" fill="#E2E2E2"/>
<path d="M43.2045 11.4166C43.8046 11.4201 44.2941 10.9317 44.2977 10.3256C44.3013 9.71957 43.8177 9.22536 43.2175 9.22179C42.6174 9.21823 42.1279 9.70664 42.1243 10.3127C42.1207 10.9188 42.6043 11.413 43.2045 11.4166Z" fill="white"/>
<path d="M46.167 7.28716C46.7672 7.29072 47.2566 6.8023 47.2602 6.19624C47.2638 5.59017 46.7802 5.09597 46.1801 5.0924C45.5799 5.08883 45.0905 5.57725 45.0869 6.18332C45.0833 6.78938 45.5669 7.28359 46.167 7.28716Z" fill="white"/>
<path d="M46.0503 10.6178L47.825 8.25477C48.0181 7.9485 48.4549 7.93069 48.6684 8.22281C49.1809 8.92424 49.7734 9.86614 49.6117 10.4615C49.3993 11.2441 48.6834 12.0777 46.3326 11.3881C46.0088 11.2931 45.8692 10.9051 46.0503 10.6178Z" fill="white"/>
<path d="M41.6875 23.8249L41.6875 23.8249C42.9274 23.2151 43.4431 21.7057 42.8393 20.4537L33.921 1.95891C33.3172 0.706874 31.8227 0.186271 30.5828 0.796109C29.3429 1.40595 28.8272 2.91529 29.4309 4.16732L38.3493 22.6621C38.953 23.9141 40.4476 24.4347 41.6875 23.8249Z" fill="#E2E2E2"/>
</g>
<defs>
<clipPath id="clip0_1413_967">
<rect width="117.192" height="72.2537" fill="white" transform="translate(0.946289 0.0854492) rotate(0.340717)"/>
</clipPath>
</defs>
</svg>
