<svg width="78" height="75" viewBox="0 0 78 75" fill="none" xmlns="http://www.w3.org/2000/svg">
<g clip-path="url(#clip0_1413_1034)">
<path d="M57.988 1.52837L9.06624 9.77391C6.43101 10.2181 4.65702 12.7276 5.10391 15.379L9.45792 41.2119C9.90482 43.8634 12.4034 45.6527 15.0386 45.2086L63.9603 36.9631C66.5955 36.5189 68.3695 34.0094 67.9226 31.3579L63.5686 5.52507C63.1217 2.8736 60.6232 1.08422 57.988 1.52837Z" fill="#E2E2E2"/>
<path d="M57.3892 4.01339L10.4466 11.9254C8.39881 12.2705 7.02029 14.2206 7.36755 16.2809L11.3008 39.6173C11.6481 41.6777 13.5896 43.0682 15.6374 42.723L62.58 34.8111C64.6277 34.4659 66.0063 32.5159 65.659 30.4555L61.7258 7.11911C61.3785 5.05873 59.4369 3.66825 57.3892 4.01339Z" stroke="#C9C9C9" stroke-miterlimit="10"/>
<path d="M75.1495 63.5382L13.1421 73.8394C11.5693 74.1007 10.1389 72.8734 10.1469 71.2695L10.2622 48.1848C10.2685 46.9283 11.1718 45.86 12.4035 45.6524L66.6042 36.5171C67.8373 36.3093 69.042 37.0244 69.4585 38.2114L77.15 60.1302C77.6821 61.6468 76.7256 63.2764 75.1495 63.5382Z" fill="#C9C9C9"/>
<path d="M50.1298 41.1159L29.4664 44.5986L30.1349 48.565L50.7983 45.0823L50.1298 41.1159Z" fill="#E2E2E2"/>
</g>
<defs>
<clipPath id="clip0_1413_1034">
<rect width="68" height="64" fill="white" transform="translate(0 11.3018) rotate(-9.56703)"/>
</clipPath>
</defs>
</svg>
