<svg width="87" height="71" viewBox="0 0 87 71" fill="none" xmlns="http://www.w3.org/2000/svg">
<g clip-path="url(#clip0_1413_989)">
<path d="M43.5 70.3948C67.1881 70.3948 86.3911 60.9607 86.3911 49.3231C86.3911 37.6856 67.1881 28.2515 43.5 28.2515C19.8119 28.2515 0.608887 37.6856 0.608887 49.3231C0.608887 60.9607 19.8119 70.3948 43.5 70.3948Z" stroke="#E2E2E2" stroke-width="2" stroke-miterlimit="10"/>
<path d="M41.0558 12.9902C52.533 12.9902 61.8512 22.2509 61.8512 33.6574V54.3246H41.0558C29.5785 54.3246 20.2604 45.064 20.2604 33.6574C20.2604 22.2509 29.5785 12.9902 41.0558 12.9902Z" fill="#E2E2E2"/>
<path d="M43.5 28.3175C44.6329 28.3175 45.5513 27.4048 45.5513 26.2789C45.5513 25.153 44.6329 24.2402 43.5 24.2402C42.3671 24.2402 41.4487 25.153 41.4487 26.2789C41.4487 27.4048 42.3671 28.3175 43.5 28.3175Z" fill="white"/>
<path d="M35.0937 23.8546C36.2266 23.8546 37.145 22.9419 37.145 21.816C37.145 20.6901 36.2266 19.7773 35.0937 19.7773C33.9608 19.7773 33.0424 20.6901 33.0424 21.816C33.0424 22.9419 33.9608 23.8546 35.0937 23.8546Z" fill="white"/>
<path d="M38.9261 29.1101L33.9807 26.6212C33.4024 26.2683 32.6465 26.5974 32.5233 27.2606C32.2275 28.8532 31.9929 30.9131 32.7544 31.7747C33.7554 32.9072 35.6523 33.7114 39.0774 30.6285C39.5493 30.2039 39.4686 29.4412 38.9261 29.1101Z" fill="white"/>
<path d="M57.1378 0H57.1378C54.5346 0 52.4243 2.09727 52.4243 4.68437V42.9007C52.4243 45.4878 54.5346 47.585 57.1378 47.585C59.7409 47.585 61.8512 45.4878 61.8512 42.9007V4.68437C61.8512 2.09727 59.7409 0 57.1378 0Z" fill="#E2E2E2"/>
</g>
<defs>
<clipPath id="clip0_1413_989">
<rect width="87" height="71" fill="white"/>
</clipPath>
</defs>
</svg>
