<svg width="97" height="67" viewBox="0 0 97 67" fill="none" xmlns="http://www.w3.org/2000/svg">
<g clip-path="url(#clip0_1413_1009)">
<path d="M52.8728 54.591C74.9378 49.8227 90.6432 35.8613 87.9519 23.4072C85.2606 10.9531 65.1916 4.72256 43.1266 9.49082C21.0616 14.2591 5.35619 28.2205 8.04752 40.6746C10.7389 53.1286 30.8078 59.3592 52.8728 54.591Z" fill="#C9C9C9"/>
<path d="M56.2598 56.7838C78.3247 52.0156 94.0302 38.0541 91.3389 25.6001C88.6475 13.146 68.5786 6.91543 46.5136 11.6837C24.4486 16.4519 8.74316 30.4134 11.4345 42.8675C14.1258 55.3215 34.1948 61.5521 56.2598 56.7838Z" fill="#E2E2E2"/>
<path d="M19.1936 52.3001C19.1936 52.3001 17.9797 60.3112 10.379 62.8437C10.379 62.8437 23.5586 61.6443 26.9398 54.3986L19.1936 52.3001Z" fill="#E2E2E2"/>
<path d="M19.1936 52.3001C19.1936 52.3001 17.9797 60.3112 10.379 62.8437C10.379 62.8437 23.5586 61.6443 26.9398 54.3986L19.1936 52.3001Z" fill="#E2E2E2"/>
<path d="M51.9905 37.0282C53.5276 36.696 54.5033 35.1757 54.1698 33.6325C53.8363 32.0892 52.3199 31.1074 50.7828 31.4396C49.2458 31.7717 48.2701 33.2921 48.6036 34.8353C48.9371 36.3786 50.4535 37.3603 51.9905 37.0282Z" fill="white"/>
<path d="M40.1608 39.5843C41.6979 39.2522 42.6736 37.7319 42.3401 36.1886C42.0066 34.6454 40.4902 33.6636 38.9531 33.9957C37.4161 34.3279 36.4404 35.8482 36.7739 37.3915C37.1074 38.9347 38.6238 39.9165 40.1608 39.5843Z" fill="white"/>
<path d="M63.8156 34.4725C65.3527 34.1404 66.3283 32.62 65.9949 31.0768C65.6614 29.5335 64.145 28.5518 62.6079 28.8839C61.0709 29.2161 60.0952 30.7364 60.4287 32.2796C60.7622 33.8229 62.2786 34.8047 63.8156 34.4725Z" fill="white"/>
</g>
<defs>
<clipPath id="clip0_1413_1009">
<rect width="87" height="49" fill="white" transform="translate(0.824829 18.6323) rotate(-12.1941)"/>
</clipPath>
</defs>
</svg>
